<?xml version="1.0" encoding="UTF-8" standalone="no"?>
<!DOCTYPE svg PUBLIC "-//W3C//DTD SVG 1.1//EN"
 "http://www.w3.org/Graphics/SVG/1.1/DTD/svg11.dtd">
<!-- Generated by graphviz version 2.38.0 (20140413.2041)
 -->
<!-- Title: %3 Pages: 1 -->
<svg width="979pt" height="249pt"
 viewBox="0.00 0.00 978.50 248.55" xmlns="http://www.w3.org/2000/svg" xmlns:xlink="http://www.w3.org/1999/xlink">
<g id="graph0" class="graph" transform="scale(1 1) rotate(0) translate(4 244.551)">
<title>%3</title>
<polygon fill="white" stroke="none" points="-4,4 -4,-244.551 974.5,-244.551 974.5,4 -4,4"/>
<!-- &#45;1 -->
<g id="node1" class="node"><title>&#45;1</title>
<polygon fill="lightgray" stroke="black" points="24,-95.9117 0,-95.9117 0,-77.9117 24,-77.9117 24,-95.9117"/>
<text text-anchor="middle" x="12" y="-84.7117" font-family="Times New Roman,serif" font-size="9.00">&#45;1</text>
</g>
<!-- 0 -->
<g id="node25" class="node"><title>0</title>
<ellipse fill="lightblue" stroke="black" cx="445" cy="-14.8492" rx="14.7" ry="14.7"/>
<text text-anchor="middle" x="445" y="-12.6492" font-family="Times New Roman,serif" font-size="9.00">0</text>
</g>
<!-- &#45;1&#45;&gt;0 -->
<g id="edge1" class="edge"><title>&#45;1&#45;&gt;0</title>
<path fill="none" stroke="green" stroke-width="0.317889" d="M18.1118,-77.889C21.899,-73.5304 27.149,-68.4771 33,-65.6985 102.166,-32.852 340.486,-20.1851 419.397,-16.8313"/>
<polygon fill="green" stroke="green" stroke-width="0.317889" points="419.996,-20.3098 429.844,-16.4028 419.709,-13.3157 419.996,-20.3098"/>
</g>
<!-- &#45;2 -->
<g id="node2" class="node"><title>&#45;2</title>
<polygon fill="lightgray" stroke="black" points="66,-95.9117 42,-95.9117 42,-77.9117 66,-77.9117 66,-95.9117"/>
<text text-anchor="middle" x="54" y="-84.7117" font-family="Times New Roman,serif" font-size="9.00">&#45;2</text>
</g>
<!-- &#45;2&#45;&gt;0 -->
<g id="edge2" class="edge"><title>&#45;2&#45;&gt;0</title>
<path fill="none" stroke="green" stroke-width="0.116028" d="M60.4857,-77.5089C64.2466,-73.2562 69.3502,-68.4285 75,-65.6985 136.478,-35.9923 347.369,-21.4185 420.103,-17.1897"/>
<polygon fill="green" stroke="green" stroke-width="0.116028" points="420.387,-20.6794 430.173,-16.6196 419.991,-13.6905 420.387,-20.6794"/>
</g>
<!-- &#45;3 -->
<g id="node3" class="node"><title>&#45;3</title>
<polygon fill="lightgray" stroke="black" points="108,-95.9117 84,-95.9117 84,-77.9117 108,-77.9117 108,-95.9117"/>
<text text-anchor="middle" x="96" y="-84.7117" font-family="Times New Roman,serif" font-size="9.00">&#45;3</text>
</g>
<!-- &#45;3&#45;&gt;0 -->
<g id="edge3" class="edge"><title>&#45;3&#45;&gt;0</title>
<path fill="none" stroke="red" stroke-width="0.244172" d="M102.504,-77.5469C106.271,-73.3053 111.373,-68.4761 117,-65.6985 170.572,-39.2519 352.709,-22.9328 419.865,-17.6943"/>
<polygon fill="red" stroke="red" stroke-width="0.244172" points="420.265,-21.174 429.97,-16.9226 419.732,-14.1943 420.265,-21.174"/>
</g>
<!-- &#45;4 -->
<g id="node4" class="node"><title>&#45;4</title>
<polygon fill="lightgray" stroke="black" points="150,-95.9117 126,-95.9117 126,-77.9117 150,-77.9117 150,-95.9117"/>
<text text-anchor="middle" x="138" y="-84.7117" font-family="Times New Roman,serif" font-size="9.00">&#45;4</text>
</g>
<!-- &#45;4&#45;&gt;0 -->
<g id="edge4" class="edge"><title>&#45;4&#45;&gt;0</title>
<path fill="none" stroke="green" stroke-width="0.916878" d="M144.529,-77.5956C148.302,-73.3682 153.404,-68.5371 159,-65.6985 247.15,-20.9838 368.081,-15.5234 419.839,-15.4158"/>
<polygon fill="green" stroke="green" stroke-width="0.916878" points="420.058,-18.9168 430.075,-15.4651 420.092,-11.9169 420.058,-18.9168"/>
</g>
<!-- &#45;5 -->
<g id="node5" class="node"><title>&#45;5</title>
<polygon fill="lightgray" stroke="black" points="192,-95.9117 168,-95.9117 168,-77.9117 192,-77.9117 192,-95.9117"/>
<text text-anchor="middle" x="180" y="-84.7117" font-family="Times New Roman,serif" font-size="9.00">&#45;5</text>
</g>
<!-- &#45;5&#45;&gt;0 -->
<g id="edge5" class="edge"><title>&#45;5&#45;&gt;0</title>
<path fill="none" stroke="red" stroke-width="0.266397" d="M186.562,-77.66C190.345,-73.4515 195.446,-68.6178 201,-65.6985 274.011,-27.3238 373.705,-18.4603 419.769,-16.4349"/>
<polygon fill="red" stroke="red" stroke-width="0.266397" points="420.159,-19.9231 430.024,-16.0606 419.903,-12.9277 420.159,-19.9231"/>
</g>
<!-- &#45;6 -->
<g id="node6" class="node"><title>&#45;6</title>
<polygon fill="lightgray" stroke="black" points="234,-95.9117 210,-95.9117 210,-77.9117 234,-77.9117 234,-95.9117"/>
<text text-anchor="middle" x="222" y="-84.7117" font-family="Times New Roman,serif" font-size="9.00">&#45;6</text>
</g>
<!-- &#45;6&#45;&gt;0 -->
<g id="edge6" class="edge"><title>&#45;6&#45;&gt;0</title>
<path fill="none" stroke="red" stroke-width="0.348382" d="M228.61,-77.749C232.407,-73.5666 237.506,-68.7295 243,-65.6985 301.253,-33.5617 380.246,-21.864 419.981,-17.83"/>
<polygon fill="red" stroke="red" stroke-width="0.348382" points="420.467,-21.2999 430.098,-16.8848 419.816,-14.3303 420.467,-21.2999"/>
</g>
<!-- &#45;7 -->
<g id="node7" class="node"><title>&#45;7</title>
<polygon fill="lightgray" stroke="black" points="276,-95.9117 252,-95.9117 252,-77.9117 276,-77.9117 276,-95.9117"/>
<text text-anchor="middle" x="264" y="-84.7117" font-family="Times New Roman,serif" font-size="9.00">&#45;7</text>
</g>
<!-- &#45;7&#45;&gt;0 -->
<g id="edge7" class="edge"><title>&#45;7&#45;&gt;0</title>
<path fill="none" stroke="green" stroke-width="0.365297" d="M270.684,-77.8796C274.504,-73.7354 279.599,-68.8931 285,-65.6985 328.872,-39.7471 387.631,-25.9691 420.353,-19.8568"/>
<polygon fill="green" stroke="green" stroke-width="0.365297" points="421.161,-23.2682 430.393,-18.0713 419.935,-16.3764 421.161,-23.2682"/>
</g>
<!-- &#45;8 -->
<g id="node8" class="node"><title>&#45;8</title>
<polygon fill="lightgray" stroke="black" points="782,-240.551 758,-240.551 758,-222.551 782,-222.551 782,-240.551"/>
<text text-anchor="middle" x="770" y="-229.351" font-family="Times New Roman,serif" font-size="9.00">&#45;8</text>
</g>
<!-- &#45;9 -->
<g id="node9" class="node"><title>&#45;9</title>
<polygon fill="lightgray" stroke="black" points="318,-95.9117 294,-95.9117 294,-77.9117 318,-77.9117 318,-95.9117"/>
<text text-anchor="middle" x="306" y="-84.7117" font-family="Times New Roman,serif" font-size="9.00">&#45;9</text>
</g>
<!-- &#45;9&#45;&gt;0 -->
<g id="edge8" class="edge"><title>&#45;9&#45;&gt;0</title>
<path fill="none" stroke="red" stroke-width="0.353175" stroke-dasharray="1,5" d="M313.191,-77.6893C317,-73.6919 321.931,-69.0416 327,-65.6985 357.053,-45.8793 396.28,-31.193 421.063,-23.0727"/>
<polygon fill="red" stroke="red" stroke-width="0.353175" points="422.261,-26.3643 430.731,-19.9987 420.14,-19.6933 422.261,-26.3643"/>
</g>
<!-- &#45;10 -->
<g id="node10" class="node"><title>&#45;10</title>
<polygon fill="lightgray" stroke="black" points="365.5,-95.9117 336.5,-95.9117 336.5,-77.9117 365.5,-77.9117 365.5,-95.9117"/>
<text text-anchor="middle" x="351" y="-84.7117" font-family="Times New Roman,serif" font-size="9.00">&#45;10</text>
</g>
<!-- &#45;10&#45;&gt;0 -->
<g id="edge9" class="edge"><title>&#45;10&#45;&gt;0</title>
<path fill="none" stroke="red" stroke-width="0.405426" d="M359.764,-77.8088C363.977,-74.0188 369.153,-69.5112 374,-65.6985 390.41,-52.7888 409.869,-39.2424 424.261,-29.5348"/>
<polygon fill="red" stroke="red" stroke-width="0.405426" points="426.537,-32.2232 432.905,-23.7551 422.646,-26.4042 426.537,-32.2232"/>
</g>
<!-- &#45;11 -->
<g id="node11" class="node"><title>&#45;11</title>
<polygon fill="lightgray" stroke="black" points="412.5,-95.9117 383.5,-95.9117 383.5,-77.9117 412.5,-77.9117 412.5,-95.9117"/>
<text text-anchor="middle" x="398" y="-84.7117" font-family="Times New Roman,serif" font-size="9.00">&#45;11</text>
</g>
<!-- &#45;11&#45;&gt;0 -->
<g id="edge10" class="edge"><title>&#45;11&#45;&gt;0</title>
<path fill="none" stroke="green" stroke-width="0.52596" d="M403.391,-77.8746C410.196,-67.7318 422.139,-49.9283 431.489,-35.9895"/>
<polygon fill="green" stroke="green" stroke-width="0.52596" points="434.515,-37.7615 437.18,-27.5071 428.702,-33.8618 434.515,-37.7615"/>
</g>
<!-- &#45;12 -->
<g id="node12" class="node"><title>&#45;12</title>
<polygon fill="lightgray" stroke="black" points="459.5,-95.9117 430.5,-95.9117 430.5,-77.9117 459.5,-77.9117 459.5,-95.9117"/>
<text text-anchor="middle" x="445" y="-84.7117" font-family="Times New Roman,serif" font-size="9.00">&#45;12</text>
</g>
<!-- &#45;12&#45;&gt;0 -->
<g id="edge11" class="edge"><title>&#45;12&#45;&gt;0</title>
<path fill="none" stroke="green" stroke-width="0.128821" d="M445,-77.8746C445,-68.7202 445,-53.3256 445,-40.1641"/>
<polygon fill="green" stroke="green" stroke-width="0.128821" points="448.5,-39.8196 445,-29.8197 441.5,-39.8197 448.5,-39.8196"/>
</g>
<!-- &#45;13 -->
<g id="node13" class="node"><title>&#45;13</title>
<polygon fill="lightgray" stroke="black" points="829.5,-240.551 800.5,-240.551 800.5,-222.551 829.5,-222.551 829.5,-240.551"/>
<text text-anchor="middle" x="815" y="-229.351" font-family="Times New Roman,serif" font-size="9.00">&#45;13</text>
</g>
<!-- &#45;14 -->
<g id="node14" class="node"><title>&#45;14</title>
<polygon fill="lightgray" stroke="black" points="876.5,-240.551 847.5,-240.551 847.5,-222.551 876.5,-222.551 876.5,-240.551"/>
<text text-anchor="middle" x="862" y="-229.351" font-family="Times New Roman,serif" font-size="9.00">&#45;14</text>
</g>
<!-- &#45;15 -->
<g id="node15" class="node"><title>&#45;15</title>
<polygon fill="lightgray" stroke="black" points="506.5,-95.9117 477.5,-95.9117 477.5,-77.9117 506.5,-77.9117 506.5,-95.9117"/>
<text text-anchor="middle" x="492" y="-84.7117" font-family="Times New Roman,serif" font-size="9.00">&#45;15</text>
</g>
<!-- &#45;15&#45;&gt;0 -->
<g id="edge12" class="edge"><title>&#45;15&#45;&gt;0</title>
<path fill="none" stroke="green" stroke-width="0.290891" stroke-dasharray="1,5" d="M486.609,-77.8746C479.804,-67.7318 467.861,-49.9283 458.511,-35.9895"/>
<polygon fill="green" stroke="green" stroke-width="0.290891" points="461.298,-33.8618 452.82,-27.5071 455.485,-37.7615 461.298,-33.8618"/>
</g>
<!-- &#45;16 -->
<g id="node16" class="node"><title>&#45;16</title>
<polygon fill="lightgray" stroke="black" points="553.5,-95.9117 524.5,-95.9117 524.5,-77.9117 553.5,-77.9117 553.5,-95.9117"/>
<text text-anchor="middle" x="539" y="-84.7117" font-family="Times New Roman,serif" font-size="9.00">&#45;16</text>
</g>
<!-- &#45;16&#45;&gt;0 -->
<g id="edge13" class="edge"><title>&#45;16&#45;&gt;0</title>
<path fill="none" stroke="red" stroke-width="0.34976" d="M529.799,-77.8614C525.39,-74.083 519.994,-69.5698 515,-65.6985 498.749,-53.1022 479.709,-39.6216 465.592,-29.8591"/>
<polygon fill="red" stroke="red" stroke-width="0.34976" points="467.329,-26.806 457.105,-24.0274 463.365,-32.5753 467.329,-26.806"/>
</g>
<!-- &#45;17 -->
<g id="node17" class="node"><title>&#45;17</title>
<polygon fill="lightgray" stroke="black" points="600.5,-95.9117 571.5,-95.9117 571.5,-77.9117 600.5,-77.9117 600.5,-95.9117"/>
<text text-anchor="middle" x="586" y="-84.7117" font-family="Times New Roman,serif" font-size="9.00">&#45;17</text>
</g>
<!-- &#45;17&#45;&gt;0 -->
<g id="edge14" class="edge"><title>&#45;17&#45;&gt;0</title>
<path fill="none" stroke="green" stroke-width="0.20195" stroke-dasharray="1,5" d="M577.591,-77.7582C573.19,-73.7783 567.568,-69.1229 562,-65.6985 531.556,-46.9756 492.832,-31.9992 468.472,-23.5173"/>
<polygon fill="green" stroke="green" stroke-width="0.20195" points="469.572,-20.1946 458.978,-20.2878 467.318,-26.8217 469.572,-20.1946"/>
</g>
<!-- &#45;18 -->
<g id="node18" class="node"><title>&#45;18</title>
<polygon fill="lightgray" stroke="black" points="923.5,-240.551 894.5,-240.551 894.5,-222.551 923.5,-222.551 923.5,-240.551"/>
<text text-anchor="middle" x="909" y="-229.351" font-family="Times New Roman,serif" font-size="9.00">&#45;18</text>
</g>
<!-- &#45;19 -->
<g id="node19" class="node"><title>&#45;19</title>
<polygon fill="lightgray" stroke="black" points="647.5,-95.9117 618.5,-95.9117 618.5,-77.9117 647.5,-77.9117 647.5,-95.9117"/>
<text text-anchor="middle" x="633" y="-84.7117" font-family="Times New Roman,serif" font-size="9.00">&#45;19</text>
</g>
<!-- &#45;19&#45;&gt;0 -->
<g id="edge15" class="edge"><title>&#45;19&#45;&gt;0</title>
<path fill="none" stroke="red" stroke-width="0.124335" d="M625.172,-77.9028C620.752,-73.7654 614.936,-68.9223 609,-65.6985 563.185,-40.8169 503.269,-26.6445 470.01,-20.1766"/>
<polygon fill="red" stroke="red" stroke-width="0.124335" points="470.283,-16.6674 459.811,-18.2742 469,-23.5487 470.283,-16.6674"/>
</g>
<!-- &#45;20 -->
<g id="node20" class="node"><title>&#45;20</title>
<polygon fill="lightgray" stroke="black" points="739.5,-240.551 710.5,-240.551 710.5,-222.551 739.5,-222.551 739.5,-240.551"/>
<text text-anchor="middle" x="725" y="-229.351" font-family="Times New Roman,serif" font-size="9.00">&#45;20</text>
</g>
<!-- &#45;20&#45;&gt;0 -->
<g id="edge16" class="edge"><title>&#45;20&#45;&gt;0</title>
<path fill="none" stroke="red" stroke-width="0.300702" stroke-dasharray="1,5" d="M718.252,-222.234C711.597,-213.703 701.505,-199.837 695,-186.551 670.182,-135.861 697.476,-103.976 656,-65.6985 628.934,-40.7195 519.944,-24.7998 470.101,-18.6859"/>
<polygon fill="red" stroke="red" stroke-width="0.300702" points="470.212,-15.1745 459.868,-17.4674 469.384,-22.1254 470.212,-15.1745"/>
</g>
<!-- 267 -->
<g id="node26" class="node"><title>267</title>
<ellipse fill="white" stroke="black" cx="725" cy="-165.338" rx="21.4286" ry="21.4286"/>
<text text-anchor="middle" x="725" y="-163.138" font-family="Times New Roman,serif" font-size="9.00">267</text>
</g>
<!-- &#45;20&#45;&gt;267 -->
<g id="edge22" class="edge"><title>&#45;20&#45;&gt;267</title>
<path fill="none" stroke="red" stroke-width="0.272479" d="M725,-222.419C725,-215.876 725,-206.247 725,-196.807"/>
<polygon fill="red" stroke="red" stroke-width="0.272479" points="728.5,-196.793 725,-186.793 721.5,-196.793 728.5,-196.793"/>
</g>
<!-- 231 -->
<g id="node27" class="node"><title>231</title>
<ellipse fill="white" stroke="black" cx="763" cy="-86.9117" rx="21.4286" ry="21.4286"/>
<text text-anchor="middle" x="763" y="-84.7117" font-family="Times New Roman,serif" font-size="9.00">231</text>
</g>
<!-- &#45;20&#45;&gt;231 -->
<g id="edge20" class="edge"><title>&#45;20&#45;&gt;231</title>
<path fill="none" stroke="red" stroke-width="0.270631" stroke-dasharray="1,5" d="M732.413,-222.514C739.585,-214.2 750.071,-200.499 755,-186.551 762.764,-164.581 764.547,-138.204 764.507,-118.257"/>
<polygon fill="red" stroke="red" stroke-width="0.270631" points="768.005,-118.125 764.333,-108.187 761.006,-118.246 768.005,-118.125"/>
</g>
<!-- &#45;21 -->
<g id="node21" class="node"><title>&#45;21</title>
<polygon fill="lightgray" stroke="black" points="970.5,-240.551 941.5,-240.551 941.5,-222.551 970.5,-222.551 970.5,-240.551"/>
<text text-anchor="middle" x="956" y="-229.351" font-family="Times New Roman,serif" font-size="9.00">&#45;21</text>
</g>
<!-- &#45;22 -->
<g id="node22" class="node"><title>&#45;22</title>
<polygon fill="lightgray" stroke="black" points="831.5,-95.9117 802.5,-95.9117 802.5,-77.9117 831.5,-77.9117 831.5,-95.9117"/>
<text text-anchor="middle" x="817" y="-84.7117" font-family="Times New Roman,serif" font-size="9.00">&#45;22</text>
</g>
<!-- &#45;22&#45;&gt;0 -->
<g id="edge17" class="edge"><title>&#45;22&#45;&gt;0</title>
<path fill="none" stroke="red" stroke-width="0.17776" d="M809.355,-77.5339C804.988,-73.2885 799.165,-68.4598 793,-65.6985 734.84,-39.6479 539.999,-22.9272 470.169,-17.6496"/>
<polygon fill="red" stroke="red" stroke-width="0.17776" points="470.306,-14.1503 460.075,-16.9012 469.789,-21.1312 470.306,-14.1503"/>
</g>
<!-- &#45;23 -->
<g id="node23" class="node"><title>&#45;23</title>
<polygon fill="lightgray" stroke="black" points="878.5,-95.9117 849.5,-95.9117 849.5,-77.9117 878.5,-77.9117 878.5,-95.9117"/>
<text text-anchor="middle" x="864" y="-84.7117" font-family="Times New Roman,serif" font-size="9.00">&#45;23</text>
</g>
<!-- &#45;23&#45;&gt;0 -->
<g id="edge18" class="edge"><title>&#45;23&#45;&gt;0</title>
<path fill="none" stroke="green" stroke-width="0.38999" d="M856.79,-77.9028C852.387,-73.5488 846.387,-68.4955 840,-65.6985 772.863,-36.2991 545.891,-21.3998 469.972,-17.152"/>
<polygon fill="green" stroke="green" stroke-width="0.38999" points="470.079,-13.6528 459.903,-16.6021 469.697,-20.6423 470.079,-13.6528"/>
</g>
<!-- &#45;24 -->
<g id="node24" class="node"><title>&#45;24</title>
<polygon fill="lightgray" stroke="black" points="925.5,-95.9117 896.5,-95.9117 896.5,-77.9117 925.5,-77.9117 925.5,-95.9117"/>
<text text-anchor="middle" x="911" y="-84.7117" font-family="Times New Roman,serif" font-size="9.00">&#45;24</text>
</g>
<!-- &#45;24&#45;&gt;0 -->
<g id="edge19" class="edge"><title>&#45;24&#45;&gt;0</title>
<path fill="none" stroke="red" stroke-width="0.399952" d="M903.804,-77.8711C899.406,-73.5065 893.406,-68.4532 887,-65.6985 810.868,-32.9587 551.697,-20.077 469.929,-16.7688"/>
<polygon fill="red" stroke="red" stroke-width="0.399952" points="469.942,-13.2667 459.812,-16.3723 469.668,-20.2613 469.942,-13.2667"/>
</g>
<!-- 267&#45;&gt;0 -->
<g id="edge24" class="edge"><title>267&#45;&gt;0</title>
<path fill="none" stroke="red" stroke-width="0.312354" d="M723.557,-144.078C720.823,-121.513 712.908,-85.5999 690,-65.6985 657.13,-37.1426 525.308,-22.7287 469.817,-17.8291"/>
<polygon fill="red" stroke="red" stroke-width="0.312354" points="470.05,-14.3363 459.789,-16.9747 469.455,-21.3111 470.05,-14.3363"/>
</g>
<!-- 267&#45;&gt;231 -->
<g id="edge23" class="edge"><title>267&#45;&gt;231</title>
<path fill="none" stroke="green" stroke-width="0.690402" d="M734.199,-145.837C738.726,-136.731 744.276,-125.569 749.292,-115.482"/>
<polygon fill="green" stroke="green" stroke-width="0.690402" points="752.568,-116.755 753.886,-106.242 746.3,-113.638 752.568,-116.755"/>
</g>
<!-- 231&#45;&gt;0 -->
<g id="edge21" class="edge"><title>231&#45;&gt;0</title>
<path fill="none" stroke="red" stroke-width="0.1162" d="M745.781,-74.372C740.293,-71.1378 734.066,-67.9063 728,-65.6985 636.692,-32.4675 520.508,-20.9471 470.154,-17.3371"/>
<polygon fill="red" stroke="red" stroke-width="0.1162" points="470.11,-13.8264 459.898,-16.6479 469.641,-20.8106 470.11,-13.8264"/>
</g>
</g>
</svg>
